<svg xmlns="http://www.w3.org/2000/svg" viewBox="0 0 32 32" id="mic"><path fill="#607d95" d="M16 24.8c-3.9 0-7-3.1-7-7V13h1v4.8c0 3.3 2.7 6 6 6s6-2.7 6-6V13h1v4.8c0 3.9-3.1 7-7 7z"></path><path fill="#4b6c85" d="M9 13h1v2H9zm13 0h1v2h-1z"></path><path fill="#607d95" d="M17 24v3h-2v-3m-5.5 5v-1c0-.6.4-1 1-1h11c.6 0 1 .4 1 1v1h-13z"></path><path fill="#4b6c85" d="M12.5 27h-2c-.6 0-1 .4-1 1v1h2v-1c0-.6.4-1 1-1z"></path><path fill="#607d95" d="M11 14H9c-.6 0-1-.4-1-1s.4-1 1-1h2v2zm12 0h-2v-2h2c.6 0 1 .4 1 1s-.4 1-1 1z"></path><path fill="#eef2fa" d="M16 23c-2.8 0-5-2.2-5-5V7c0-2.8 2.2-5 5-5s5 2.2 5 5v11c0 2.8-2.2 5-5 5z"></path><path fill="#607d95" d="M11 14v4c0 2.8 2.2 5 5 5s5-2.2 5-5v-4H11z"></path><path fill="#4b6c85" d="M15 15.5h6V14H11v4c0 .3 0 .6.1.9 0 .1 0 .2.1.3 0 .2.1.4.2.6 0 .1.1.2.1.3l.3.6c0 .1.1.1.1.2.2.2.3.4.5.6l.3.3c.1.1.2.2.4.3.1.1.2.2.3.2.1.1.3.2.4.2 1 .5 2.1.7 3.4.4 2.3-.6 3.9-2.7 3.9-5.1v-1.2c0 2.8-2.2 5-5 5H16c-1.6 0-2.8-1.4-2.8-2.9v-1.1c-.2-1.2.7-2.1 1.8-2.1z"></path><path fill="#d5e5f2" d="M15 12.5c-1.1 0-2-.9-2-2V7c0-2.4 1.7-4.4 4-4.9-.6-.1-1.3-.1-2 0-2.4.5-4 2.7-4 5.1V14h10v-1.5h-6zM16 23c.3 0 .7 0 1-.1-.3.1-.7.1-1 .1z"></path><circle cx="14" cy="4" r=".5" fill="#b0c4da"></circle><circle cx="16" cy="4" r=".5" fill="#b0c4da"></circle><circle cx="18" cy="4" r=".5" fill="#b0c4da"></circle><circle cx="13" cy="6" r=".5" fill="#b0c4da"></circle><circle cx="15" cy="6" r=".5" fill="#b0c4da"></circle><circle cx="17" cy="6" r=".5" fill="#b0c4da"></circle><circle cx="15" cy="6" r=".5" fill="#b0c4da"></circle><circle cx="17" cy="6" r=".5" fill="#b0c4da"></circle><circle cx="19" cy="6" r=".5" fill="#b0c4da"></circle><circle cx="15.5" cy="8" r=".5" fill="#b0c4da"></circle><circle cx="17.5" cy="8" r=".5" fill="#b0c4da"></circle><circle cx="19.5" cy="8" r=".5" fill="#b0c4da"></circle><circle cx="11.5" cy="8" r=".5" fill="#b0c4da"></circle><circle cx="13.5" cy="8" r=".5" fill="#b0c4da"></circle><circle cx="15.5" cy="8" r=".5" fill="#b0c4da"></circle><circle cx="16.5" cy="10" r=".5" fill="#b0c4da"></circle><circle cx="18.5" cy="10" r=".5" fill="#b0c4da"></circle><circle cx="20.5" cy="10" r=".5" fill="#b0c4da"></circle><circle cx="12.5" cy="10" r=".5" fill="#b0c4da"></circle><circle cx="14.5" cy="10" r=".5" fill="#b0c4da"></circle><circle cx="16.5" cy="10" r=".5" fill="#b0c4da"></circle><circle cx="15.5" cy="12" r=".5" fill="#b0c4da"></circle><circle cx="17.5" cy="12" r=".5" fill="#b0c4da"></circle><circle cx="19.5" cy="12" r=".5" fill="#b0c4da"></circle><circle cx="11.5" cy="12" r=".5" fill="#b0c4da"></circle><circle cx="13.5" cy="12" r=".5" fill="#b0c4da"></circle><circle cx="15.5" cy="12" r=".5" fill="#b0c4da"></circle><path fill="#99b5ce" d="M12.8 6c0-.2.2-.4.4-.5h-.1c-.3 0-.5.2-.5.5s.2.5.5.5h.1c-.3-.1-.4-.3-.4-.5zm2 0c0-.2.2-.4.4-.5h-.1c-.3 0-.5.2-.5.5s.2.5.5.5h.1c-.3-.1-.4-.3-.4-.5zm2 0c0-.2.2-.4.4-.5h-.1c-.3 0-.5.2-.5.5s.2.5.5.5h.1c-.3-.1-.4-.3-.4-.5zm2 0c0-.2.2-.4.4-.5h-.1c-.3 0-.5.2-.5.5s.2.5.5.5h.1c-.3-.1-.4-.3-.4-.5zm-3.5 2c0-.2.2-.4.4-.5h-.1c-.4 0-.6.2-.6.5s.2.5.5.5h.1c-.2-.1-.3-.3-.3-.5zm2 0c0-.2.2-.4.4-.5h-.1c-.4 0-.6.2-.6.5s.2.5.5.5h.1c-.2-.1-.3-.3-.3-.5zm2 0c0-.2.2-.4.4-.5h-.1c-.4 0-.6.2-.6.5s.2.5.5.5h.1c-.2-.1-.3-.3-.3-.5zm-6 0c0-.2.2-.4.4-.5h-.1c-.4 0-.6.2-.6.5s.2.5.5.5h.1c-.2-.1-.3-.3-.3-.5zm-2 0c0-.2.2-.4.4-.5h-.1c-.4 0-.6.2-.6.5s.2.5.5.5h.1c-.2-.1-.3-.3-.3-.5zm1 2c0-.2.2-.4.4-.5h-.1c-.4 0-.6.2-.6.5s.2.5.5.5h.1c-.2-.1-.3-.3-.3-.5zm2 0c0-.2.2-.4.4-.5h-.1c-.4 0-.6.2-.6.5s.2.5.5.5h.1c-.2-.1-.3-.3-.3-.5zm2 0c0-.2.2-.4.4-.5h-.1c-.4 0-.6.2-.6.5s.2.5.5.5h.1c-.2-.1-.3-.3-.3-.5zm2 0c0-.2.2-.4.4-.5h-.1c-.4 0-.6.2-.6.5s.2.5.5.5h.1c-.2-.1-.3-.3-.3-.5zm2 0c0-.2.2-.4.4-.5h-.1c-.4 0-.6.2-.6.5s.2.5.5.5h.1c-.2-.1-.3-.3-.3-.5zm-1 2c0-.2.2-.4.4-.5h-.1c-.3 0-.5.2-.5.5s.2.5.5.5h.1c-.3-.1-.4-.3-.4-.5zm-2 0c0-.2.2-.4.4-.5h-.1c-.3 0-.5.2-.5.5s.2.5.5.5h.1c-.3-.1-.4-.3-.4-.5zm-2 0c0-.2.2-.4.4-.5h-.1c-.3 0-.5.2-.5.5s.2.5.5.5h.1c-.3-.1-.4-.3-.4-.5zm-2 0c0-.2.2-.4.4-.5h-.1c-.3 0-.5.2-.5.5s.2.5.5.5h.1c-.3-.1-.4-.3-.4-.5zm-2 0c0-.2.2-.4.4-.5h-.1c-.3 0-.5.2-.5.5s.2.5.5.5h.1c-.3-.1-.4-.3-.4-.5zm2.5-8c0-.2.2-.4.4-.5h-.1c-.3 0-.5.2-.5.5s.2.5.5.5h.1c-.3-.1-.4-.3-.4-.5zm2 0c0-.2.2-.4.4-.5h-.1c-.3 0-.5.2-.5.5s.2.5.5.5h.1c-.3-.1-.4-.3-.4-.5zm2 0c0-.2.2-.4.4-.5h-.1c-.3 0-.5.2-.5.5s.2.5.5.5h.1c-.3-.1-.4-.3-.4-.5z"></path></svg>